<?xml version="1.0" encoding="UTF-8" standalone="no"?><!DOCTYPE svg PUBLIC "-//W3C//DTD SVG 1.1//EN" "http://www.w3.org/Graphics/SVG/1.1/DTD/svg11.dtd"><svg width="100%" height="100%" viewBox="0 0 256 256" version="1.1" xmlns="http://www.w3.org/2000/svg" xmlns:xlink="http://www.w3.org/1999/xlink" xml:space="preserve" style="fill-rule:evenodd;clip-rule:evenodd;stroke-linejoin:round;stroke-miterlimit:1.41421;"><rect id="CityCell" x="0" y="0" width="256" height="256" style="fill:none;"/><g><rect x="0" y="0" width="256" height="256" style="fill:#fff;"/><g><rect x="214.694" y="214.706" width="33.056" height="33.044" style="fill:#4a5206;fill-rule:nonzero;"/><rect x="214.694" y="173.445" width="33.056" height="33.003" style="fill:#6f7b09;fill-rule:nonzero;"/><rect x="214.694" y="132.131" width="33.056" height="33.056" style="fill:#6f7b09;fill-rule:nonzero;"/><rect x="214.694" y="90.824" width="33.056" height="33.044" style="fill:#94a50c;fill-rule:nonzero;"/><rect x="214.694" y="49.563" width="33.056" height="33.003" style="fill:#94a50c;fill-rule:nonzero;"/><rect x="214.694" y="8.249" width="33.056" height="33.056" style="fill:#a9b73c;fill-rule:nonzero;"/><rect x="173.433" y="214.706" width="33.003" height="33.044" style="fill:#6f7b09;fill-rule:nonzero;"/><rect x="173.433" y="173.445" width="33.003" height="33.003" style="fill:#6f7b09;fill-rule:nonzero;"/><rect x="173.433" y="132.131" width="33.003" height="33.056" style="fill:#94a50c;fill-rule:nonzero;"/><rect x="173.433" y="90.824" width="33.003" height="33.044" style="fill:#94a50c;fill-rule:nonzero;"/><rect x="173.433" y="49.563" width="33.003" height="33.003" style="fill:#a9b73c;fill-rule:nonzero;"/><rect x="173.433" y="8.249" width="33.003" height="33.056" style="fill:#bfc96d;fill-rule:nonzero;"/><rect x="132.13" y="214.706" width="33.046" height="33.044" style="fill:#6f7b09;fill-rule:nonzero;"/><rect x="132.13" y="173.445" width="33.046" height="33.003" style="fill:#94a50c;fill-rule:nonzero;"/><rect x="132.13" y="132.131" width="33.046" height="33.056" style="fill:#b55231;fill-rule:nonzero;"/><rect x="132.13" y="90.824" width="33.046" height="33.044" style="fill:#a9b73c;fill-rule:nonzero;"/><rect x="132.13" y="49.563" width="33.046" height="33.003" style="fill:#bfc96d;fill-rule:nonzero;"/><rect x="132.13" y="8.249" width="33.046" height="33.056" style="fill:#bfc96d;fill-rule:nonzero;"/><rect x="90.812" y="214.706" width="33.056" height="33.044" style="fill:#94a50c;fill-rule:nonzero;"/><rect x="90.812" y="173.445" width="33.056" height="33.003" style="fill:#94a50c;fill-rule:nonzero;"/><rect x="90.812" y="132.131" width="33.056" height="33.056" style="fill:#b55231;fill-rule:nonzero;"/><rect x="90.812" y="90.824" width="33.056" height="33.044" style="fill:#b55231;fill-rule:nonzero;"/><rect x="90.812" y="49.563" width="33.056" height="33.003" style="fill:#bfc96d;fill-rule:nonzero;"/><rect x="90.812" y="8.249" width="33.056" height="33.056" style="fill:#d4db9e;fill-rule:nonzero;"/><rect x="49.55" y="214.706" width="33.003" height="33.044" style="fill:#94a50c;fill-rule:nonzero;"/><rect x="49.55" y="173.445" width="33.003" height="33.003" style="fill:#a9b73c;fill-rule:nonzero;"/><rect x="49.55" y="132.131" width="33.003" height="33.056" style="fill:#bfc96d;fill-rule:nonzero;"/><rect x="49.55" y="90.824" width="33.003" height="33.044" style="fill:#bfc96d;fill-rule:nonzero;"/><rect x="49.55" y="49.563" width="33.003" height="33.003" style="fill:#d4db9e;fill-rule:nonzero;"/><rect x="49.55" y="8.249" width="33.003" height="33.056" style="fill:#d4db9e;fill-rule:nonzero;"/><rect x="8.249" y="214.706" width="33.046" height="33.044" style="fill:#a9b73c;fill-rule:nonzero;"/><rect x="8.249" y="173.445" width="33.046" height="33.003" style="fill:#bfc96d;fill-rule:nonzero;"/><rect x="8.249" y="132.131" width="33.046" height="33.056" style="fill:#bfc96d;fill-rule:nonzero;"/><rect x="8.249" y="90.824" width="33.046" height="33.044" style="fill:#d4db9e;fill-rule:nonzero;"/><rect x="8.249" y="49.563" width="33.046" height="33.003" style="fill:#d4db9e;fill-rule:nonzero;"/><rect x="8.249" y="8.249" width="33.046" height="33.056" style="fill:#eaedce;fill-rule:nonzero;"/></g></g></svg>