<?xml version="1.0" encoding="UTF-8" standalone="no"?><!DOCTYPE svg PUBLIC "-//W3C//DTD SVG 1.1//EN" "http://www.w3.org/Graphics/SVG/1.1/DTD/svg11.dtd"><svg width="100%" height="100%" viewBox="0 0 256 256" version="1.1" xmlns="http://www.w3.org/2000/svg" xmlns:xlink="http://www.w3.org/1999/xlink" xml:space="preserve" style="fill-rule:evenodd;clip-rule:evenodd;stroke-linejoin:round;stroke-miterlimit:1.41421;"><rect id="UrbanMetrics" x="0" y="0" width="256" height="256" style="fill:none;"/><clipPath id="_clip1"><rect x="0" y="0" width="256" height="256"/></clipPath><g clip-path="url(#_clip1)"><g><rect x="-0.851" y="0" width="256" height="256" style="fill:#4300ff;"/><clipPath id="_clip2"><rect x="-0.851" y="0" width="256" height="256"/></clipPath><g clip-path="url(#_clip2)"><path d="M317.593,-46.019l-19.07,361.568l-361.818,-13.53l19.071,-361.568l361.817,13.53Z" style="fill:url(#_Linear3);fill-rule:nonzero;"/></g><clipPath id="_clip4"><rect x="13.299" y="14.363" width="225.747" height="225.768"/></clipPath><g clip-path="url(#_clip4)"><path d="M82.392,129.11l81.029,49.525l29.702,-21.16l-65.701,-73.054l-45.03,44.689Zm-75.192,-45.96l58.738,35.901l48.945,-48.575l-58.757,-65.336l25.204,0l46.869,52.12l52.517,-52.12l26.59,0l-66.567,66.063l66.567,74.021l49.545,-33.148l0,22.974l-76.074,54.194l76.074,46.497l0,13.404l-13.932,0l-78.701,-48.105l-67.528,48.105l-32.247,0l82.418,-58.714l-78.135,-47.756l-61.526,61.06l0,-26.388l45.072,-44.731l-45.072,-27.55l0,-21.916Z" style="fill:#fff;"/><path d="M258.601,135.952l-74.651,53.18l74.651,45.627l0,16.136l-16.174,0l-78.135,-47.759l-67.042,47.759l-34.846,0l-0.637,-1.992l81.921,-58.36l-74.703,-45.659l-61.938,61.468l-1.597,-0.665l0,-29.068l44.005,-43.673l-44.005,-26.898l0,-24.754l1.079,-0.605l59.15,36.153l46.788,-46.435l-58.932,-65.531l0.662,-1.486l27.913,0l46.161,51.333l51.724,-51.333l29.267,0l0.665,1.615l-66.773,66.267l64.439,71.654l49.84,-33.345l1.168,0.623l0,25.748Zm-3.5,111.443l0,-10.673l-76.781,-46.929l-0.033,-0.924l76.814,-54.721l0,-18.796l-48.082,32.169l-68.695,-76.386l64.734,-64.245l-21.621,0l-53.248,52.845l-0.12,-0.003l-47.519,-52.842l-20.496,0l57.244,63.654l-51.102,50.716l-57.246,-34.989l0,17.814l45.747,27.962l0.066,0.562l-45.813,45.467l0,21.456l59.518,-59.066l80.85,49.416l0.033,0.924l-79.436,56.589l26.216,0l68.014,-48.451l79.267,48.451l11.689,0Zm-127.548,-165.446l68.045,75.661l-0.03,0.272l-32.073,22.849l-83.528,-51.053l-0.066,-0.562l47.532,-47.17l0.12,0.003Zm-42.344,46.831l78.138,47.759l27.164,-19.352l-63.161,-70.229l-42.141,41.822Z" style="fill:#fff;"/></g><path d="M241.521,242.384l-228.743,0l0,-228.768l228.743,0l0,228.768Zm-225.743,-225.768l0,222.768l222.743,0l0,-222.768l-222.743,0Z" style="fill:#fefffc;"/></g></g><defs><linearGradient id="_Linear3" x1="0" y1="0" x2="1" y2="0" gradientUnits="userSpaceOnUse" gradientTransform="matrix(342.747,375.099,-380.888,348.037,-44.2244,-59.5494)"><stop offset="0" style="stop-color:#fff;stop-opacity:1"/><stop offset="0.44" style="stop-color:#34bae9;stop-opacity:1"/><stop offset="1" style="stop-color:#00a9e4;stop-opacity:1"/></linearGradient></defs></svg>